<?xml version="1.0" encoding="UTF-8" standalone="no"?>
<svg
   xmlns:dc="http://purl.org/dc/elements/1.1/"
   xmlns:cc="http://creativecommons.org/ns#"
   xmlns:rdf="http://www.w3.org/1999/02/22-rdf-syntax-ns#"
   xmlns:svg="http://www.w3.org/2000/svg"
   xmlns="http://www.w3.org/2000/svg"
   xmlns:sodipodi="http://sodipodi.sourceforge.net/DTD/sodipodi-0.dtd"
   xmlns:inkscape="http://www.inkscape.org/namespaces/inkscape"
   width="200"
   height="200"
   viewBox="0 0 200 200"
   version="1.1"
   id="svg14"
   sodipodi:docname="avatar_mono.svg"
   inkscape:version="1.0.2 (e86c870879, 2021-01-15)">
  <metadata
     id="metadata20">
    <rdf:RDF>
      <cc:Work
         rdf:about="">
        <dc:format>image/svg+xml</dc:format>
        <dc:type
           rdf:resource="http://purl.org/dc/dcmitype/StillImage" />
        <dc:title></dc:title>
      </cc:Work>
    </rdf:RDF>
  </metadata>
  <defs
     id="defs18" />
  <sodipodi:namedview
     pagecolor="#ffffff"
     bordercolor="#666666"
     borderopacity="1"
     objecttolerance="10"
     gridtolerance="10"
     guidetolerance="10"
     inkscape:pageopacity="0"
     inkscape:pageshadow="2"
     inkscape:window-width="1080"
     inkscape:window-height="1920"
     id="namedview16"
     showgrid="false"
     inkscape:zoom="4.445"
     inkscape:cx="100"
     inkscape:cy="100"
     inkscape:window-x="0"
     inkscape:window-y="0"
     inkscape:window-maximized="0"
     inkscape:current-layer="svg14" />
  <path
     d="m 88.940325,1.9258511 c -4.787,1.275 -10.768,4.7 -13.821,7.915 -2.668,2.8089999 -3.158,2.9439999 -9,2.4799999 -10.956,-0.87 -15.898,1.277 -10.764,4.676 4.21,2.787003 4.21,2.787003 -0.267,3.914003 -16.16,4.07 -20.243,19.458 -16.231,61.166 0.401,4.167 0.201,4.659 -2.532,6.227 -10.575,6.069 -7.354,38.748996 3.818,38.748996 2.824,0 4.009,3.868 2.385,7.787 -0.74,1.787 -1.042,8.693 -0.863,19.731 0.304,18.764 1.761,20.446 23.068,26.621 10.384,3.01 10.629,5.606 0.707,7.478 -8.106,1.53 -13.444,3.439 -21.303,7.617 -7.833,4.164 1.521,5.514 12.647,1.826 12.171,-4.035 15.406,-4.215 16.554,-0.922 0.878,2.518 1.488,2.862 5.076,2.862 4.077,0 4.077,0 2.552,-2.95 -5.042,-9.75 -2.71,-11.621 14.474,-11.621 17.183995,0 19.515995,1.871 14.473995,11.621 -1.525,2.95 -1.525,2.95 2.552,2.95 3.588,0 4.198,-0.344 5.076,-2.862 1.155,-3.314 5.003,-3.099 16.133,0.898 9.668,3.473 19.874,2.428 13.51,-1.384 -6.381,-3.822 -13.879,-6.6 -21.745,-8.057 -9.399,-1.741 -9.721,-4.576 -0.8,-7.051 22.522,-6.248 23.993,-8.164 23.785,-30.98 -0.105,-11.585 -0.145,-21.626 -0.088,-22.314 0.057,-0.687 1.273,-1.25 2.703,-1.25 10.078,0 14.099,-29.741996 5.076,-37.536996 -4.527,-3.91 -4.8,-28.671 -0.382,-34.646 4.608,-6.234 2.505,-22.894 -3.549,-28.115 -20.409,-17.5980029 -48.697,-28.7030029 -63.244995,-24.8290029 m -4.419,6.774 c -8.982,4.4759999 -14.166,14.1260029 -5.473,10.1869999 17.381,-7.874 35.391995,1.244003 35.391995,17.918003 0,9.486 5.577,16.248 13.401,16.248 6.923,0 -0.428,-30.524 -9.725,-40.382003 -6.507,-6.8989999 -23.651995,-8.9259999 -33.594995,-3.9709999 m 40.826995,9.5349999 c 3.563,6.314003 7.086,19.070003 7.106,25.728003 0.021,7.082 0.84,9.09 3.711,9.09 6.877,0 0.915,-31.677 -6.889,-36.604003 -6.826,-4.308 -7.257,-4.112 -3.928,1.786 m -37.221995,2.835003 c -9.401,2.822 -14.426,18.983 -5.903,18.983 4.959,0 4.959,0 5.606,-4.875 0.644,-4.855 5.481,-13.125 7.676,-13.125 0.579,0 0.775,-0.45 0.435,-1 -0.726,-1.175 -3.867,-1.168 -7.814,0.017 m 8.443,3.661 c -3.759,2.962 -6.129,7.714 -6.129,12.29 0,4.944 5.269,4.385 7.936,-0.842 1.087,-2.131 3.442995,-5.108 5.234995,-6.617 3.259,-2.742 3.259,-2.742 0.488,-5.126 -3.426,-2.947 -3.414,-2.947 -7.529995,0.295 m 42.595995,2.572 c 1.009,3.276 1.647,9.103 1.696,15.499 0.079,10.248 0.079,10.248 2.715,10.25 7.597,0.004 2.332,-30.567 -5.332,-30.963 -0.383,-0.02 0.032,2.326 0.921,5.214 m -80.224995,-2.536 c -5.607,1.02 -6.868,1.579 -9.19,4.076 -6.006,6.46 -7.813,11.859 -7.771,23.21 0.056,14.935 1.531,34.633 2.465,32.929 1.222,-2.228 4.996,-21.783 4.996,-25.887 0,-10.753 5.655,-19.042 12.991,-19.042 3.838,0 3.838,0 4.216,-6.75 0.475,-8.492 -0.713,-9.808 -7.707,-8.536 m 15.864,1.455 c -3.413,1.653 -4.918,14.277 -1.626,13.643 1.273,-0.245 1.948,-1.797 2.524,-5.797 0.432,-3.005 1.225,-5.902 1.762,-6.439 2.351,-2.351 0.888,-3.125 -2.66,-1.407 m 29.444995,6.581 c -5.701995,6.114 -5.579995,7.25 0.784,7.25 5.663,0 5.663,0 4.998,-4.155 -1.092,-6.831 -1.896,-7.261 -5.782,-3.095 m 44.272,1 c 0.479,2.063 0.882,7.237 0.895,11.5 0.019,6.167 0.326,7.75 1.505,7.75 3.22,0 3.305,-15.625 0.111,-20.5 -2.39,-3.647 -3.518,-3.086 -2.511,1.25 m -86.957995,20.453 c -6.804,8.35 -11.028,18.317 -11.124,26.246 0,0.028 8.438,0.051 18.75,0.051 18.751,0 18.751,0 19.067,2.75 0.36,3.127 6.149,3.968 10.328,1.5 1.694005,-1 2.207995,-1 2.569995,0 0.788,2.176 2.141,1.354 2.47,-1.5 0.316,-2.75 0.316,-2.75 18.566,-3.023 10.037,-0.149 18.25,-0.492 18.25,-0.76 0,-0.988 -4.502,-10.129 -7.685,-15.602 -2.813,-4.839 -3.804,-5.734 -7.011,-6.336 -6.754,-1.267 -14.304,-7.129 -14.304,-11.106 0,-7.429 -42.941995,-0.731 -49.876995,7.78 m 73.876995,4.137 c 0,0.186 2.239,4.737 4.976,10.113 2.737,5.375 5.262,11.297 5.611,13.16 1.356,7.227 2.413,2.797 2.413,-10.113 0,-13.5 0,-13.5 -6.5,-13.5 -3.575,0 -6.5,0.153 -6.5,0.34 m -17.25,12.267 c -3.162,1.955 -5.75,3.941 -5.75,4.414 0,2.135 2.422,1.922 6.707,-0.59 4.648,-2.723 4.648,-2.723 6.721,-0.208 4.177,5.071 6.006,1.523 1.953,-3.79 -3.173,-4.16 -2.601,-4.171 -9.631,0.174 m -56.749995,5.393 c 0,1.963 0.467,2.064 8.25,1.79 6.538,-0.23 8.25,-0.601 8.25,-1.79 0,-1.189 -1.712,-1.56 -8.25,-1.79 -7.783,-0.274 -8.25,-0.173 -8.25,1.79 m -12.25,10.875 c -2.136,9.611 -0.35,45.017996 2.355,46.689996 2.276,1.407 7.316,-1.166 13.964,-7.127 9.591,-8.6 15.668,-10.05 24.181,-5.77 2.55,1.283 2.75,1.236 2.75,-0.642 0,-1.813 0.641,-2.026 6.107,-2.026 4.471995,0 5.979995,-0.335 5.632995,-1.25 -0.26,-0.687 -1.511,-6.987 -2.779,-14 -2.872995,-15.888996 -12.538995,-20.294996 -13.164995,-5.999996 -0.578,13.179996 -37.132,10.036996 -37.796,-3.25 -0.381,-7.619 -0.679,-9.196 -1.25,-6.625 m 91.249995,7.125 c 0,9.999996 0,9.999996 -17.5,9.999996 -9.625,0 -17.48,0.338 -17.456,0.75 0.505,8.691 2.584,12.652 7.265,13.846 3.163,0.807 6.599,2.832 10.282,6.058 17.566,15.391 18.583,14.416 19.19,-18.404 0.291,-15.721996 0.09,-22.249996 -0.685,-22.249996 -0.722,0 -1.096,3.414 -1.096,10 m -84.793995,-1.75 c 0.308,7.605 1.291,7.856996 26.544,6.802 5.694,-0.238 0.872,-14.052 -4.905,-14.052 -5.899,0 -6.086,0.076 -4.5,1.829 3.362,3.715 1.448,8.171 -3.51,8.171 -4.575,0 -6.213,-4.622 -2.835,-8 2,-2 2,-2 -4.544,-2 -6.544,0 -6.544,0 -6.25,7.25 m 51.999995,0 c 0.294,7.25 0.294,7.25 14.294,7.25 14,0 14,0 14.294,-7.25 0.294,-7.25 0.294,-7.25 -6.75,-7.25 -7.044,0 -7.044,0 -5.044,2 3.378,3.378 1.74,8 -2.835,8 -4.958,0 -6.872,-4.456 -3.51,-8.171 1.586,-1.753 1.398,-1.829 -4.544,-1.829 -6.199,0 -6.199,0 -5.905,7.25 m 41.794,14.749996 c 0,13.76 0.044,14.047 2,13 1.828,-0.979 2,-2.094 2,-13 0,-10.905996 -0.172,-12.020996 -2,-12.999996 -1.956,-1.047 -2,-0.76 -2,12.999996 M 38.640325,95.252854 c -3.142,3.142 -1.059,25.799996 2.371,25.799996 0.236,0 0.429,-6.075 0.429,-13.5 0,-13.196996 -0.353,-14.746996 -2.8,-12.299996 m 33.49,34.680996 c -6.843,6.436 -12.422,10.119 -15.33,10.119 -2.999,0 -3.072,1.576 -0.11,2.37 14.644,3.924 41.085,-9.956 29.75,-15.618 -5.814,-2.905 -8.524,-2.312 -14.31,3.129 m 32.059995,-3.223 c -4.992995,2.071 -4.737995,3.511 1.5,8.465 8.873,7.047 20.757,10.114 28.168,7.27 2.149,-0.825 2.003,-2.393 -0.222,-2.393 -2.403,0 -9.962,-4.942 -13.696,-8.955 -5.616,-6.035 -9.302,-7.061 -15.75,-4.387 m -18.397995,16.581 c -1.668,2.699 -11.355,6.119 -18.556,6.551 -7.704,0.462 -7.704,0.462 -8,6.086 -0.437,8.303 -3.184,7.95 -3.589,-0.462 -0.628,-13.011 -7.207,-11.946 -7.207,1.167 0,10.549 0,10.549 7.25,13.853 12.369,5.637 12.596,5.616 12.95,-1.178 0.447,-8.576 3.12,-8.078 3.8,0.708 0.598,7.731 0.3,7.6 19.75,8.671 12.249995,0.674 12.249995,0.674 12.264995,-9.731 0.016,-10.411 0.788,-13.762 2.873,-12.473 0.701,0.433 1.112,4.549 1.112,11.14 0,11.927 -0.182,11.853 16.5,6.685 10.546,-3.268 11.936,-4.026 10.515,-5.738 -1.879,-2.264 -0.874,-13.93 1.235,-14.331 1.543,-0.294 1.75,0.568 1.75,7.275 0,7.298 0.081,7.565 2,6.538 1.795,-0.96 2,-2.094 2,-11.035 0,-10.789 0.047,-10.718 -5.572,-8.37 -2.748,1.148 -6.129,1.498 -12.077,1.25 -8.261,-0.345 -8.261,-0.345 -8.556,3.147 -0.488,5.768 -3.795,5.44 -3.795,-0.377 0,-7.248 -22.967995,-15.33 -26.647995,-9.376 m 1.097,10.033 c -1.211,3.157 -0.004,14.228 1.551,14.228 1.979,0 2.219,-14.594 0.251,-15.25 -0.688,-0.229 -1.498,0.231 -1.802,1.022"
     stroke="none"
     fill="#120b07"
     fill-rule="evenodd"
     id="path12" />
</svg>
